HIERARCHY
ROOT hip
{
  OFFSET 0 0 0
  CHANNELS 6 Xposition Yposition Zposition Zrotation Yrotation Xrotation
  JOINT abdomen
  {
    OFFSET 0 20.6881 -0.73152
    CHANNELS 3 Zrotation Xrotation Yrotation
    JOINT chest
    {
      OFFSET 0 11.7043 -0.48768
      CHANNELS 3 Zrotation Xrotation Yrotation
      JOINT neck
      {
        OFFSET 0 22.1894 -2.19456
        CHANNELS 3 Zrotation Xrotation Yrotation
        JOINT head
        {
          OFFSET -0.24384 7.07133 1.2192
          CHANNELS 3 Zrotation Xrotation Yrotation
          JOINT leftEye
          {
            OFFSET 4.14528 8.04674 8.04672
            CHANNELS 3 Zrotation Xrotation Yrotation
            End Site
            {
              OFFSET 1 0 0
            }
          }
          JOINT rightEye
          {
            OFFSET -3.6576 8.04674 8.04672
            CHANNELS 3 Zrotation Xrotation Yrotation
            End Site
            {
              OFFSET 1 0 0
            }
          }
        }
      }
      JOINT rCollar
      {
        OFFSET -2.68224 19.2634 -4.8768
        CHANNELS 3 Zrotation Xrotation Yrotation
        JOINT rShldr
        {
          OFFSET -8.77824 -1.95073 1.46304
          CHANNELS 3 Zrotation Xrotation Yrotation
          JOINT rForeArm
          {
            OFFSET -28.1742 -1.7115 0.48768
            CHANNELS 3 Zrotation Xrotation Yrotation
            JOINT rHand
            {
              OFFSET -22.5879 0.773209 7.07136
              CHANNELS 3 Zrotation Xrotation Yrotation
              JOINT rThumb1
              {
                OFFSET -1.2192 -0.487915 3.41376
                CHANNELS 3 Zrotation Xrotation Yrotation
                JOINT rThumb2
                {
                  OFFSET -3.37035 -0.52449 3.41376
                  CHANNELS 3 Zrotation Xrotation Yrotation
                  End Site
                  {
                    OFFSET -1.78271 -1.18214 1.43049
                  }
                }
              }
              JOINT rIndex1
              {
                OFFSET -7.75947 0.938293 5.60832
                CHANNELS 3 Zrotation Xrotation Yrotation
                JOINT rIndex2
                {
                  OFFSET -2.54057 -0.884171 1.56538
                  CHANNELS 3 Zrotation Xrotation Yrotation
                  End Site
                  {
                    OFFSET -1.62519 -0.234802 1.16502
                  }
                }
              }
              JOINT rMid1
              {
                OFFSET -8.24714 1.18213 3.41376
                CHANNELS 3 Zrotation Xrotation Yrotation
                JOINT rMid2
                {
                  OFFSET -3.10165 -0.590103 1.0647
                  CHANNELS 3 Zrotation Xrotation Yrotation
                  End Site
                  {
                    OFFSET -2.48547 -0.328903 0.83742
                  }
                }
              }
              JOINT rRing1
              {
                OFFSET -8.82822 0.546677 1.51678
                CHANNELS 3 Zrotation Xrotation Yrotation
                JOINT rRing2
                {
                  OFFSET -2.60934 -0.819778 -0.0198488
                  CHANNELS 3 Zrotation Xrotation Yrotation
                  End Site
                  {
                    OFFSET -2.33842 -0.294052 0.168128
                  }
                }
              }
              JOINT rPinky1
              {
                OFFSET -8.27202 -0.0477905 -0.4584
                CHANNELS 3 Zrotation Xrotation Yrotation
                JOINT rPinky2
                {
                  OFFSET -1.82734 -0.647385 -0.700984
                  CHANNELS 3 Zrotation Xrotation Yrotation
                  End Site
                  {
                    OFFSET -1.69225 -0.51767 -0.607171
                  }
                }
              }
            }
          }
        }
      }
      JOINT lCollar
      {
        OFFSET 2.68224 19.2634 -4.8768
        CHANNELS 3 Zrotation Xrotation Yrotation
        JOINT lShldr
        {
          OFFSET 8.77824 -1.95073 1.46304
          CHANNELS 3 Zrotation Xrotation Yrotation
          JOINT lForeArm
          {
            OFFSET 28.1742 -1.7115 0.48768
            CHANNELS 3 Zrotation Xrotation Yrotation
            JOINT lHand
            {
              OFFSET 22.5879 0.773209 7.07136
              CHANNELS 3 Zrotation Xrotation Yrotation
              JOINT lThumb1
              {
                OFFSET 1.2192 -0.487915 3.41376
                CHANNELS 3 Zrotation Xrotation Yrotation
                JOINT lThumb2
                {
                  OFFSET 3.37035 -0.52449 3.41376
                  CHANNELS 3 Zrotation Xrotation Yrotation
                  End Site
                  {
                    OFFSET 1.78271 -1.18214 1.43049
                  }
                }
              }
              JOINT lIndex1
              {
                OFFSET 7.75947 0.938293 5.60832
                CHANNELS 3 Zrotation Xrotation Yrotation
                JOINT lIndex2
                {
                  OFFSET 2.54057 -0.884171 1.56538
                  CHANNELS 3 Zrotation Xrotation Yrotation
                  End Site
                  {
                    OFFSET 1.62519 -0.234802 1.16502
                  }
                }
              }
              JOINT lMid1
              {
                OFFSET 8.24714 1.18213 3.41376
                CHANNELS 3 Zrotation Xrotation Yrotation
                JOINT lMid2
                {
                  OFFSET 3.10165 -0.590103 1.0647
                  CHANNELS 3 Zrotation Xrotation Yrotation
                  End Site
                  {
                    OFFSET 2.48547 -0.328903 0.83742
                  }
                }
              }
              JOINT lRing1
              {
                OFFSET 8.82822 0.546677 1.51678
                CHANNELS 3 Zrotation Xrotation Yrotation
                JOINT lRing2
                {
                  OFFSET 2.60934 -0.819778 -0.0198488
                  CHANNELS 3 Zrotation Xrotation Yrotation
                  End Site
                  {
                    OFFSET 2.33842 -0.294052 0.168128
                  }
                }
              }
              JOINT lPinky1
              {
                OFFSET 8.27202 -0.0477905 -0.4584
                CHANNELS 3 Zrotation Xrotation Yrotation
                JOINT lPinky2
                {
                  OFFSET 1.82734 -0.647385 -0.700984
                  CHANNELS 3 Zrotation Xrotation Yrotation
                  End Site
                  {
                    OFFSET 1.69225 -0.51767 -0.607171
                  }
                }
              }
            }
          }
        }
      }
    }
  }
  JOINT rButtock
  {
    OFFSET -8.77824 4.35084 1.2192
    CHANNELS 3 Zrotation Xrotation Yrotation
    JOINT rThigh
    {
      OFFSET 0 -1.70687 -2.19456
      CHANNELS 3 Zrotation Xrotation Yrotation
      JOINT rShin
      {
        OFFSET 0 -36.8199 0.73152
        CHANNELS 3 Zrotation Xrotation Yrotation
        JOINT rFoot
        {
          OFFSET 0.73152 -45.1104 -5.12064
          CHANNELS 3 Zrotation Xrotation Yrotation
          End Site
          {
            OFFSET -1.1221 -3.69964 12.103
          }
        }
      }
    }
  }
  JOINT lButtock
  {
    OFFSET 8.77824 4.35084 1.2192
    CHANNELS 3 Zrotation Xrotation Yrotation
    JOINT lThigh
    {
      OFFSET 0 -1.70687 -2.19456
      CHANNELS 3 Zrotation Xrotation Yrotation
      JOINT lShin
      {
        OFFSET 0 -36.8199 0.73152
        CHANNELS 3 Zrotation Xrotation Yrotation
        JOINT lFoot
        {
          OFFSET -0.73152 -45.1104 -5.12064
          CHANNELS 3 Zrotation Xrotation Yrotation
          End Site
          {
            OFFSET 1.1221 -3.69964 12.103
          }
        }
      }
    }
  }
}
MOTION
Frames:	9
Frame Time:	0.00833333
-169.149 85.2982 9.76342 0.0 0.0 0.0 0.984355 -0.00436094 0.0272514 0.271545 -0.00455348 0.0470445 -5.62433e-15 -1.59028e-15 -1.631e-23 -1.66637e-14 -6.36111e-15 5.12492e-17 -0.0 0.0 0.0 -0.0 0.0 0.0 -2.73453e-15 3.12542e-17 1.98785e-16 -5.69051e-14 4.03781e-16 5.96354e-16 -1.00863e-12 3.26206e-13 1.59028e-14 -1.16152e-11 -1.89591e-13 -4.45278e-14 -2.73903e-11 2.99022e-13 -3.49861e-14 -4.73088e-11 5.1843e-13 -6.04305e-14 -2.73854e-11 2.99767e-13 -3.81667e-14 7.73091 5.47488 0.417314 -2.73896e-11 2.99171e-13 -3.18055e-14 2.90554 0.965183 0.102902 -2.73834e-11 2.99668e-13 -3.10104e-14 10.2786 0.731801 0.0259123 -2.73943e-11 3.01358e-13 -2.22639e-14 2.22167 -0.733487 -0.20892 -2.73224e-15 3.26131e-17 -1.98785e-16 -6.12064e-14 5.09386e-16 -9.93923e-16 -1.01703e-12 -2.82473e-13 0.0 -1.15985e-11 4.10018e-13 0.0 -2.73656e-11 2.79127e-13 -2.22639e-14 -4.72599e-11 4.83444e-13 -3.97569e-14 -2.73711e-11 2.80286e-13 -1.90833e-14 -7.73091 5.47488 -0.417314 -2.73659e-11 2.78795e-13 -2.8625e-14 -2.90554 0.965183 -0.102902 -2.73679e-11 2.79094e-13 -2.8625e-14 -10.2786 0.731801 -0.0259123 -2.73641e-11 2.79491e-13 -4.13472e-14 -2.22167 -0.733487 0.20892 -2.03217e-16 0.0 -3.88251e-19 1.24883 -5.45297 -0.109164 6.91505e-05 4.32233 0.0238794 -0.510685 1.12951 0.081236 2.03217e-16 0.0 3.88251e-19 0.24968 -1.91924 0.012923 0.00928358 -2.07855 0.0766837 0.496244 3.99654 -0.137943
-165.659 82.6148 2.777 -156.233 79.2287 -139.904 2.10141 -5.93808 2.0781 0.204642 3.05076 0.589359 4.02212 2.54446 4.4915 -5.1053 0.336773 8.9109 -0.0 0.0 0.0 -0.0 0.0 0.0 2.72674e-15 4.46345e-14 3.23429e-14 22.0717 2.66954 0.593514 -5.37029 -2.72343 8.05746 0.0088089 -2.08523 -0.292363 -5.12459e-10 -1.18036e-09 7.6883e-11 -8.89137e-10 -2.04477e-09 1.32369e-10 -5.12454e-10 -1.18035e-09 7.68773e-11 7.73091 5.47488 0.417314 -5.12458e-10 -1.18036e-09 7.68824e-11 2.90554 0.965183 0.102902 -5.12452e-10 -1.18036e-09 7.68836e-11 10.2786 0.731801 0.0259123 -5.12464e-10 -1.18035e-09 7.68931e-11 2.22167 -0.733487 -0.20892 2.71825e-15 4.46381e-14 3.20474e-14 -20.1172 11.6059 -5.06804 4.25553 -1.9404 -6.63973 -0.0307356 -3.92044 0.546443 -2.58007e-10 -5.96576e-10 2.63296e-10 -4.45818e-10 -1.0376e-09 4.51584e-10 -2.58013e-10 -5.96575e-10 2.63301e-10 -7.73091 5.47488 -0.417314 -2.58007e-10 -5.96577e-10 2.63292e-10 -2.90554 0.965183 -0.102902 -2.58012e-10 -5.96577e-10 2.63292e-10 -10.2786 0.731801 -0.0259123 -2.58005e-10 -5.96577e-10 2.63281e-10 -2.22167 -0.733487 0.20892 -2.03217e-16 0.0 -3.88251e-19 -0.626141 -9.64603 -2.62973 0.0176691 7.79396 0.115893 -1.15968 -3.61398 -7.94019 2.03217e-16 0.0 3.88251e-19 2.08477 -9.39904 0.4829 -0.0412998 6.58277 -0.128657 1.03055 -1.97192 4.49062
-165.6 82.6301 2.79251 -156.087 79.4533 -139.309 3.77839 -12.159 4.32312 0.0713699 6.27616 1.16713 7.84106 5.17416 9.26913 -10.6115 0.673972 18.3316 -0.0 0.0 0.0 -0.0 0.0 0.0 7.58788e-15 9.00727e-14 6.84565e-14 45.3428 5.47701 1.22981 -10.2275 -5.42665 16.6397 -0.00512554 -4.30255 -0.604566 -1.04244e-09 -2.48451e-09 1.34464e-10 -1.80887e-09 -4.30391e-09 2.31282e-10 -1.04244e-09 -2.48451e-09 1.34456e-10 7.73091 5.47488 0.417314 -1.04244e-09 -2.48451e-09 1.34459e-10 2.90554 0.965183 0.102902 -1.04243e-09 -2.48451e-09 1.34461e-10 10.2786 0.731801 0.0259123 -1.04245e-09 -2.48451e-09 1.34471e-10 2.22167 -0.733487 -0.20892 7.56991e-15 9.00788e-14 6.82732e-14 -38.9821 23.5749 -11.164 8.28283 -3.91466 -13.7054 0.019394 -8.1197 1.14061 -5.06313e-10 -1.2671e-09 5.811e-10 -8.74989e-10 -2.20372e-09 9.97039e-10 -5.06318e-10 -1.2671e-09 5.81108e-10 -7.73091 5.47488 -0.417314 -5.06312e-10 -1.2671e-09 5.811e-10 -2.90554 0.965183 -0.102902 -5.0632e-10 -1.2671e-09 5.81099e-10 -10.2786 0.731801 -0.0259123 -5.06309e-10 -1.2671e-09 5.8109e-10 -2.22167 -0.733487 0.20892 -2.03217e-16 0.0 -3.88251e-19 -3.01557 -14.0333 -5.46917 0.0242376 11.4945 0.215997 -3.26451 -8.31889 -16.4831 2.03217e-16 0.0 3.88251e-19 4.18602 -17.2937 1.01849 -0.0253604 15.7429 -0.357502 2.64909 -8.18954 9.47869
-165.537 82.6344 2.8278 -155.759 79.6567 -138.522 5.66112 -17.7113 6.45343 -0.104595 9.15792 1.69307 10.8733 7.44531 13.5778 -15.6176 0.913347 26.7359 -0.0 0.0 0.0 -0.0 0.0 0.0 1.36493e-14 1.33841e-13 9.66311e-14 66.0478 8.00517 1.79612 -13.8722 -7.52535 24.3682 -0.0377379 -6.25504 -0.881757 -1.4826e-09 -3.54166e-09 2.30719e-10 -2.57279e-09 -6.13534e-09 3.97227e-10 -1.48259e-09 -3.54166e-09 2.30708e-10 7.73091 5.47488 0.417314 -1.48259e-09 -3.54166e-09 2.30711e-10 2.90554 0.965183 0.102902 -1.48259e-09 -3.54166e-09 2.30713e-10 10.2786 0.731801 0.0259123 -1.4826e-09 -3.54166e-09 2.30724e-10 2.22167 -0.733487 -0.20892 1.36192e-14 1.33849e-13 9.65398e-14 -53.2346 33.6163 -17.976 11.4424 -5.50915 -20.004 0.136192 -11.757 1.67055 -7.19291e-10 -1.79029e-09 7.89932e-10 -1.24293e-09 -3.11377e-09 1.35483e-09 -7.19296e-10 -1.79028e-09 7.89942e-10 -7.73091 5.47488 -0.417314 -7.1929e-10 -1.79029e-09 7.89934e-10 -2.90554 0.965183 -0.102902 -7.193e-10 -1.79029e-09 7.89933e-10 -10.2786 0.731801 -0.0259123 -7.19286e-10 -1.79029e-09 7.89926e-10 -2.22167 -0.733487 0.20892 -2.03217e-16 0.0 -3.88251e-19 -5.53088 -17.8997 -7.94721 0.0183374 14.737 0.306941 -6.38786 -12.0521 -24.5098 2.03217e-16 0.0 3.88251e-19 6.15457 -24.3518 1.5405 0.0567347 23.9044 -0.587049 5.0244 -13.5209 14.1387
-165.501 82.6071 2.86961 -156.333 79.9093 -138.633 7.11317 -21.6811 8.04246 -0.263558 11.1838 2.07152 12.7727 8.99788 16.6171 -19.1544 1.00614 32.5957 -0.0 0.0 0.0 -0.0 0.0 0.0 2.27113e-14 1.73435e-13 1.04958e-13 80.4571 9.83844 2.1727 -16.0481 -8.73203 29.7744 -0.0703529 -7.5461 -1.06677 -1.69818e-09 -3.98133e-09 4.23659e-10 -2.94719e-09 -6.89747e-09 7.30749e-10 -1.69817e-09 -3.98133e-09 4.23647e-10 7.73091 5.47488 0.417314 -1.69817e-09 -3.98133e-09 4.2365e-10 2.90554 0.965183 0.102902 -1.69817e-09 -3.98133e-09 4.23651e-10 10.2786 0.731801 0.0259123 -1.69818e-09 -3.98132e-09 4.23663e-10 2.22167 -0.733487 -0.20892 2.26627e-14 1.73444e-13 1.04909e-13 -61.3542 39.9824 -23.9144 13.3734 -6.45979 -24.3017 0.246369 -13.9939 2.00719 -8.43951e-10 -1.94513e-09 7.26334e-10 -1.45781e-09 -3.38364e-09 1.24347e-09 -8.43956e-10 -1.94513e-09 7.26343e-10 -7.73091 5.47488 -0.417314 -8.43949e-10 -1.94513e-09 7.26337e-10 -2.90554 0.965183 -0.102902 -8.43961e-10 -1.94513e-09 7.26336e-10 -10.2786 0.731801 -0.0259123 -8.43945e-10 -1.94513e-09 7.26331e-10 -2.22167 -0.733487 0.20892 -2.03217e-16 0.0 -3.88251e-19 -7.46833 -20.6009 -9.26683 0.00689492 16.8349 0.368664 -9.39591 -14.307 -30.7423 2.03217e-16 0.0 3.88251e-19 7.49142 -29.3253 1.91759 0.159076 29.5701 -0.770439 7.20372 -17.0288 17.5516
-165.505 82.5537 2.90839 -157.544 80.1927 -139.386 7.45204 -23.5176 8.66946 -0.329594 12.0098 2.22804 13.4478 9.68228 17.8154 -20.5477 0.940811 34.8907 -0.0 0.0 0.0 -0.0 0.0 0.0 3.56649e-14 1.91223e-13 8.05851e-14 86.1126 10.7303 2.26067 -16.8099 -9.12236 31.8578 -0.0824153 -7.91345 -1.11982 -1.54554e-09 -3.43759e-09 8.50454e-10 -2.68327e-09 -5.95689e-09 1.46938e-09 -1.54553e-09 -3.43759e-09 8.5044e-10 7.73091 5.47488 0.417314 -1.54553e-09 -3.43759e-09 8.50446e-10 2.90554 0.965183 0.102902 -1.54552e-09 -3.43759e-09 8.50446e-10 10.2786 0.731801 0.0259123 -1.54554e-09 -3.43759e-09 8.50457e-10 2.22167 -0.733487 -0.20892 3.55819e-14 1.91231e-13 8.04969e-14 -63.9943 42.3569 -26.4869 13.9948 -6.7303 -25.7995 0.273086 -14.3011 2.05557 -8.02895e-10 -1.48962e-09 1.57565e-10 -1.38536e-09 -2.59286e-09 2.61657e-10 -8.029e-10 -1.48962e-09 1.57573e-10 -7.73091 5.47488 -0.417314 -8.02894e-10 -1.48962e-09 1.57569e-10 -2.90554 0.965183 -0.102902 -8.02904e-10 -1.48962e-09 1.57568e-10 -10.2786 0.731801 -0.0259123 -8.02889e-10 -1.48962e-09 1.57563e-10 -2.22167 -0.733487 0.20892 -2.03217e-16 0.0 -3.88251e-19 -8.18978 -21.7393 -8.76583 -0.000934795 17.2686 0.383468 -11.1124 -15.1363 -34.2237 2.03217e-16 0.0 3.88251e-19 7.74769 -31.3934 2.01093 0.211166 31.7436 -0.846548 8.12283 -18.267 18.8523
-165.475 82.5116 2.94369 -159.303 80.5598 -140.78 6.87444 -23.8504 8.54749 -0.315989 11.9797 2.22232 13.3358 9.78306 17.68 -20.3993 0.77704 34.6394 -0.0 0.0 0.0 -0.0 0.0 0.0 5.14128e-14 1.94195e-13 3.30883e-14 85.5285 10.949 2.13984 -16.69 -9.04546 31.5451 -0.0758708 -7.62102 -1.07785 -1.13244e-09 -2.1971e-09 1.4396e-09 -1.96784e-09 -3.80989e-09 2.48925e-09 -1.13243e-09 -2.1971e-09 1.43958e-09 7.73091 5.47488 0.417314 -1.13244e-09 -2.1971e-09 1.43959e-09 2.90554 0.965183 0.102902 -1.13243e-09 -2.1971e-09 1.43959e-09 10.2786 0.731801 0.0259123 -1.13245e-09 -2.1971e-09 1.4396e-09 2.22167 -0.733487 -0.20892 5.12846e-14 1.94201e-13 3.29051e-14 -63.6322 42.206 -25.9601 13.7548 -6.56669 -25.2848 0.231201 -13.2289 1.89486 -6.45475e-10 -6.0265e-10 -7.66145e-10 -1.11116e-09 -1.05229e-09 -1.33174e-09 -6.45481e-10 -6.0265e-10 -7.66142e-10 -7.73091 5.47488 -0.417314 -6.45474e-10 -6.02653e-10 -7.66143e-10 -2.90554 0.965183 -0.102902 -6.45481e-10 -6.02653e-10 -7.66142e-10 -10.2786 0.731801 -0.0259123 -6.45468e-10 -6.02651e-10 -7.66148e-10 -2.22167 -0.733487 0.20892 -2.03217e-16 0.0 -3.88251e-19 -7.97475 -21.7593 -6.93232 -0.00418595 16.5166 0.364113 -11.6333 -15.181 -35.6608 2.03217e-16 0.0 3.88251e-19 7.19478 -31.387 1.87572 0.205682 31.4228 -0.832104 7.91802 -17.973 18.5534
-165.424 82.48 2.9909 -161.893 80.9628 -143.095 5.99957 -23.5555 8.14404 -0.290314 11.6132 2.15598 12.9195 9.63004 17.0102 -19.6476 0.596047 33.3719 -0.0 0.0 0.0 -0.0 0.0 0.0 6.87735e-14 2.1678e-13 -1.57952e-14 82.4382 10.8518 1.95539 -16.1934 -8.76039 30.2281 -0.0629084 -7.06171 -0.997676 -7.01274e-10 -8.68142e-10 1.93609e-09 -1.22056e-09 -1.50941e-09 3.34882e-09 -7.01263e-10 -8.68137e-10 1.93607e-09 7.73091 5.47488 0.417314 -7.0127e-10 -8.68142e-10 1.93609e-09 2.90554 0.965183 0.102902 -7.01261e-10 -8.68141e-10 1.93608e-09 10.2786 0.731801 0.0259123 -7.01283e-10 -8.6814e-10 1.93609e-09 2.22167 -0.733487 -0.20892 6.86063e-14 2.16783e-13 -1.60814e-14 -62.2473 40.7877 -24.1089 13.1232 -6.19882 -23.8875 0.170414 -11.5601 1.64765 -5.0882e-10 3.05424e-10 -1.6338e-09 -8.73099e-10 5.25147e-10 -2.82794e-09 -5.08825e-10 3.05422e-10 -1.63381e-09 -7.73091 5.47488 -0.417314 -5.0882e-10 3.0542e-10 -1.6338e-09 -2.90554 0.965183 -0.102902 -5.08823e-10 3.05421e-10 -1.6338e-09 -10.2786 0.731801 -0.0259123 -5.08812e-10 3.05424e-10 -1.63381e-09 -2.22167 -0.733487 0.20892 -2.03217e-16 0.0 -3.88251e-19 -7.41819 -21.3216 -4.64434 -0.00602938 15.3888 0.334843 -11.6568 -15.0109 -36.1824 2.03217e-16 0.0 3.88251e-19 6.38304 -30.5373 1.64354 0.177454 30.1032 -0.783076 7.30766 -17.0871 17.683
-165.356 82.4562 3.05963 -164.668 81.0851 -145.682 5.46552 -23.5075 7.93919 -0.321432 11.4301 2.13104 12.6687 9.54865 16.6082 -19.2143 0.490143 32.6173 -0.0 0.0 0.0 -0.0 0.0 0.0 8.65653e-14 2.93405e-13 -4.4329e-14 80.5746 10.7961 1.85297 -15.8226 -8.52349 29.2991 -0.0541918 -6.62846 -0.93579 -4.94419e-10 -5.90215e-11 2.08493e-09 -8.61079e-10 -1.08393e-10 3.60656e-09 -4.94407e-10 -5.90156e-11 2.08491e-09 7.73091 5.47488 0.417314 -4.94415e-10 -5.90218e-11 2.08493e-09 2.90554 0.965183 0.102902 -4.94405e-10 -5.9021e-11 2.08492e-09 10.2786 0.731801 0.0259123 -4.94429e-10 -5.902e-11 2.08493e-09 2.22167 -0.733487 -0.20892 8.63831e-14 2.93407e-13 -4.46769e-14 -61.755 39.3541 -22.77 12.5788 -5.86301 -22.736 0.126217 -10.0782 1.43134 -5.30058e-10 8.24244e-10 -2.03442e-09 -9.0908e-10 1.42655e-09 -3.51816e-09 -5.30063e-10 8.2424e-10 -2.03443e-09 -7.73091 5.47488 -0.417314 -5.30058e-10 8.2424e-10 -2.03442e-09 -2.90554 0.965183 -0.102902 -5.30059e-10 8.2424e-10 -2.03442e-09 -10.2786 0.731801 -0.0259123 -5.3005e-10 8.24244e-10 -2.03443e-09 -2.22167 -0.733487 0.20892 -2.03217e-16 0.0 -3.88251e-19 -7.03592 -21.1308 -2.75376 -0.00769101 14.6952 0.319124 -11.9748 -15.0898 -36.9376 2.03217e-16 0.0 3.88251e-19 5.85646 -30.076 1.44352 0.161337 29.2801 -0.755493 6.99748 -16.5556 17.2632
